<svg xmlns="http://www.w3.org/2000/svg" viewBox="0 0 100 100">
  <circle cx="50" cy="50" r="50" fill="#0f172a"/>
  <path d="M 50 15 L 46.5 38 Q 46.5 40, 44 40 L 41 40 Q 39 40, 39 42 L 39 44 Q 39 46, 41 46 L 44 46 Q 46.5 46, 46.5 48 L 43 69 Q 43 71, 40 71 L 36 71 Q 34 71, 34 73 L 34 76 Q 34 78, 36 78 L 40 78 Q 42 78, 42 80 L 42 92 L 58 92 L 58 80 Q 58 78, 60 78 L 64 78 Q 66 78, 66 76 L 66 73 Q 66 71, 64 71 L 60 71 Q 57 71, 57 69 L 53.5 48 Q 53.5 46, 56 46 L 59 46 Q 61 46, 61 44 L 61 42 Q 61 40, 59 40 L 56 40 Q 53.5 40, 53.5 38 Z" fill="#ffffff"/>
</svg>
