<svg xmlns="http://www.w3.org/2000/svg" viewBox="0 0 400 400">
  <defs>
    <linearGradient id="bg" x1="0" y1="0" x2="1" y2="1">
      <stop offset="0%" stop-color="#172554"/>
      <stop offset="100%" stop-color="#1e3a5f"/>
    </linearGradient>
  </defs>
  <!-- Full bleed background for social crops -->
  <rect width="400" height="400" fill="#0f172a"/>
  <circle cx="200" cy="200" r="180" fill="url(#bg)"/>
  <!-- Bottom tier -->
  <rect x="142.4" y="254" width="115.2" height="54" rx="10.8" ry="10.8" fill="#ffffff" opacity="0.2"/>
  <!-- Middle tier -->
  <rect x="164" y="192.8" width="72" height="61.2" rx="9" ry="9" fill="#ffffff" opacity="0.35"/>
  <!-- Top tier -->
  <rect x="180.2" y="128" width="39.6" height="64.8" rx="7.2" ry="7.2" fill="#ffffff" opacity="0.5"/>
  <!-- Speed lines - bottom tier -->
  <line x1="146" y1="272" x2="254" y2="272" stroke="#f59e0b" stroke-width="1.44" opacity="0.35"/>
  <line x1="146" y1="290" x2="254" y2="290" stroke="#f59e0b" stroke-width="1.44" opacity="0.35"/>
  <!-- Speed lines - middle tier -->
  <line x1="167.6" y1="213.21" x2="232.4" y2="213.21" stroke="#f59e0b" stroke-width="1.44" opacity="0.35"/>
  <line x1="167.6" y1="233.59" x2="232.4" y2="233.59" stroke="#f59e0b" stroke-width="1.44" opacity="0.35"/>
  <!-- Speed lines - top tier -->
  <line x1="183.8" y1="149.6" x2="216.2" y2="149.6" stroke="#f59e0b" stroke-width="1.44" opacity="0.35"/>
  <line x1="183.8" y1="171.2" x2="216.2" y2="171.2" stroke="#f59e0b" stroke-width="1.44" opacity="0.35"/>
  <!-- Gold shoulders - bottom tier -->
  <path d="M 142.4 264.8 A 10.8 10.8 0 0 1 153.2 254 L 246.8 254 A 10.8 10.8 0 0 1 257.6 264.8" fill="none" stroke="#f59e0b" stroke-width="2.16" opacity="0.5"/>
  <!-- Gold shoulders - middle tier -->
  <path d="M 164 201.8 A 9 9 0 0 1 173 192.8 L 227 192.8 A 9 9 0 0 1 236 201.8" fill="none" stroke="#f59e0b" stroke-width="2.16" opacity="0.5"/>
  <!-- Gold shoulders - top tier -->
  <path d="M 180.2 135.2 A 7.2 7.2 0 0 1 187.4 128 L 212.6 128 A 7.2 7.2 0 0 1 219.8 135.2" fill="none" stroke="#f59e0b" stroke-width="2.16" opacity="0.5"/>
  <!-- Antenna -->
  <line x1="200" y1="128" x2="200" y2="92" stroke="#ffffff" stroke-width="4.32" stroke-linecap="round"/>
  <!-- Wave arcs - pair 1 (r=18) -->
  <path d="M 189.38 77.46 A 18 18 0 0 1 210.58 77.46" fill="none" stroke="#f59e0b" stroke-width="3.6" stroke-linecap="round" opacity="1"/>
  <path d="M 210.58 106.54 A 18 18 0 0 1 189.38 106.54" fill="none" stroke="#f59e0b" stroke-width="3.6" stroke-linecap="round" opacity="1"/>
  <!-- Wave arcs - pair 2 (r=36) -->
  <path d="M 178.83 62.88 A 36 36 0 0 1 221.17 62.88" fill="none" stroke="#f59e0b" stroke-width="3.6" stroke-linecap="round" opacity="0.72"/>
  <path d="M 221.17 121.12 A 36 36 0 0 1 178.83 121.12" fill="none" stroke="#f59e0b" stroke-width="3.6" stroke-linecap="round" opacity="0.72"/>
  <!-- Wave arcs - pair 3 (r=54) -->
  <path d="M 168.25 48.33 A 54 54 0 0 1 231.75 48.33" fill="none" stroke="#f59e0b" stroke-width="3.6" stroke-linecap="round" opacity="0.44"/>
  <path d="M 231.75 135.67 A 54 54 0 0 1 168.25 135.67" fill="none" stroke="#f59e0b" stroke-width="3.6" stroke-linecap="round" opacity="0.44"/>
  <!-- Tip dot -->
  <circle cx="200" cy="92" r="6.48" fill="#f59e0b"/>
</svg>
