<svg xmlns="http://www.w3.org/2000/svg" viewBox="0 0 400 400">
  <defs>
    <linearGradient id="bg" x1="0" y1="0" x2="1" y2="1">
      <stop offset="0%" stop-color="#172554"/>
      <stop offset="100%" stop-color="#1e3a5f"/>
    </linearGradient>
  </defs>
  <!-- Full bleed background for social crops -->
  <rect width="400" height="400" fill="#0f172a"/>
  <circle cx="200" cy="200" r="180" fill="url(#bg)"/>
  <path d="M 200 54 L 186 136.8 Q 186 144, 176 144 L 164 144 Q 156 144, 156 152 L 156 160 Q 156 168, 164 168 L 176 168 Q 186 168, 186 176 L 172 252 Q 172 260, 160 260 L 144 260 Q 136 260, 136 268 L 136 280 Q 136 288, 144 288 L 160 288 Q 168 288, 168 296 L 168 340 L 232 340 L 232 296 Q 232 288, 240 288 L 256 288 Q 264 288, 264 280 L 264 268 Q 264 260, 256 260 L 240 260 Q 228 260, 228 252 L 214 176 Q 214 168, 224 168 L 236 168 Q 244 168, 244 160 L 244 152 Q 244 144, 236 144 L 224 144 Q 214 144, 214 136.8 Z" fill="#ffffff"/>
  <circle cx="200" cy="54" r="11" fill="#f59e0b"/>
</svg>
