<svg xmlns="http://www.w3.org/2000/svg" viewBox="0 0 260 60">
  <defs>
    <linearGradient id="bg" x1="0" y1="0" x2="1" y2="1">
      <stop offset="0%" stop-color="#172554"/>
      <stop offset="100%" stop-color="#1e3a5f"/>
    </linearGradient>
  </defs>
  <!-- Icon -->
  <circle cx="30" cy="30" r="28" fill="url(#bg)"/>
  <rect x="20.04" y="38.4" width="17.92" height="8.4" rx="1.68" ry="1.68" fill="#ffffff" opacity="0.2"/>
  <rect x="24.4" y="28.88" width="11.2" height="9.52" rx="1.4" ry="1.4" fill="#ffffff" opacity="0.35"/>
  <rect x="26.92" y="18.8" width="6.16" height="10.08" rx="1.12" ry="1.12" fill="#ffffff" opacity="0.5"/>
  <line x1="21.6" y1="41.2" x2="38.4" y2="41.2" stroke="#f59e0b" stroke-width="0.22" opacity="0.35"/>
  <line x1="21.6" y1="44" x2="38.4" y2="44" stroke="#f59e0b" stroke-width="0.22" opacity="0.35"/>
  <line x1="24.96" y1="32.05" x2="35.04" y2="32.05" stroke="#f59e0b" stroke-width="0.22" opacity="0.35"/>
  <line x1="24.96" y1="35.22" x2="35.04" y2="35.22" stroke="#f59e0b" stroke-width="0.22" opacity="0.35"/>
  <line x1="27.48" y1="22.16" x2="32.52" y2="22.16" stroke="#f59e0b" stroke-width="0.22" opacity="0.35"/>
  <line x1="27.48" y1="25.52" x2="32.52" y2="25.52" stroke="#f59e0b" stroke-width="0.22" opacity="0.35"/>
  <path d="M 20.04 40.08 A 1.68 1.68 0 0 1 22.72 38.4 L 37.28 38.4 A 1.68 1.68 0 0 1 38.96 40.08" fill="none" stroke="#f59e0b" stroke-width="0.34" opacity="0.5"/>
  <path d="M 24.4 30.28 A 1.4 1.4 0 0 1 25.8 28.88 L 34.2 28.88 A 1.4 1.4 0 0 1 35.6 30.28" fill="none" stroke="#f59e0b" stroke-width="0.34" opacity="0.5"/>
  <path d="M 26.92 19.92 A 1.12 1.12 0 0 1 27.92 18.8 L 32.08 18.8 A 1.12 1.12 0 0 1 33.08 19.92" fill="none" stroke="#f59e0b" stroke-width="0.34" opacity="0.5"/>
  <line x1="30" y1="18.8" x2="30" y2="13.2" stroke="#ffffff" stroke-width="0.67" stroke-linecap="round"/>
  <path d="M 28.35 10.94 A 2.8 2.8 0 0 1 31.65 10.94" fill="none" stroke="#f59e0b" stroke-width="0.56" stroke-linecap="round" opacity="1"/>
  <path d="M 31.65 15.46 A 2.8 2.8 0 0 1 28.35 15.46" fill="none" stroke="#f59e0b" stroke-width="0.56" stroke-linecap="round" opacity="1"/>
  <path d="M 26.71 8.67 A 5.6 5.6 0 0 1 33.29 8.67" fill="none" stroke="#f59e0b" stroke-width="0.56" stroke-linecap="round" opacity="0.72"/>
  <path d="M 33.29 17.73 A 5.6 5.6 0 0 1 26.71 17.73" fill="none" stroke="#f59e0b" stroke-width="0.56" stroke-linecap="round" opacity="0.72"/>
  <path d="M 25.06 6.41 A 8.4 8.4 0 0 1 34.94 6.41" fill="none" stroke="#f59e0b" stroke-width="0.56" stroke-linecap="round" opacity="0.44"/>
  <path d="M 34.94 19.99 A 8.4 8.4 0 0 1 25.06 19.99" fill="none" stroke="#f59e0b" stroke-width="0.56" stroke-linecap="round" opacity="0.44"/>
  <circle cx="30" cy="13.2" r="1.01" fill="#f59e0b"/>
  <!-- Text -->
  <text x="68" y="38" font-family="-apple-system, BlinkMacSystemFont, 'Segoe UI', sans-serif" font-size="30" font-weight="700" letter-spacing="-0.5" fill="#0f172a">RigaCap</text>
</svg>
