<svg xmlns="http://www.w3.org/2000/svg" viewBox="0 0 100 100">
  <circle cx="50" cy="50" r="50" fill="#ffffff"/>
  <!-- Bottom tier -->
  <rect x="34" y="65" width="32" height="15" rx="3" ry="3" fill="#0f172a" opacity="0.15"/>
  <!-- Middle tier -->
  <rect x="40" y="48" width="20" height="17" rx="2.5" ry="2.5" fill="#0f172a" opacity="0.25"/>
  <!-- Top tier -->
  <rect x="44.5" y="30" width="11" height="18" rx="2" ry="2" fill="#0f172a" opacity="0.4"/>
  <!-- Speed lines -->
  <line x1="35" y1="70" x2="65" y2="70" stroke="#0f172a" stroke-width="0.4" opacity="0.2"/>
  <line x1="35" y1="75" x2="65" y2="75" stroke="#0f172a" stroke-width="0.4" opacity="0.2"/>
  <line x1="41" y1="53.67" x2="59" y2="53.67" stroke="#0f172a" stroke-width="0.4" opacity="0.2"/>
  <line x1="41" y1="59.33" x2="59" y2="59.33" stroke="#0f172a" stroke-width="0.4" opacity="0.2"/>
  <line x1="45.5" y1="36" x2="54.5" y2="36" stroke="#0f172a" stroke-width="0.4" opacity="0.2"/>
  <line x1="45.5" y1="42" x2="54.5" y2="42" stroke="#0f172a" stroke-width="0.4" opacity="0.2"/>
  <!-- Shoulders -->
  <path d="M 34 68 A 3 3 0 0 1 37 65 L 63 65 A 3 3 0 0 1 66 68" fill="none" stroke="#0f172a" stroke-width="0.6" opacity="0.35"/>
  <path d="M 40 50.5 A 2.5 2.5 0 0 1 42.5 48 L 57.5 48 A 2.5 2.5 0 0 1 60 50.5" fill="none" stroke="#0f172a" stroke-width="0.6" opacity="0.35"/>
  <path d="M 44.5 32 A 2 2 0 0 1 46.5 30 L 53.5 30 A 2 2 0 0 1 55.5 32" fill="none" stroke="#0f172a" stroke-width="0.6" opacity="0.35"/>
  <!-- Antenna -->
  <line x1="50" y1="30" x2="50" y2="20" stroke="#0f172a" stroke-width="1.2" stroke-linecap="round"/>
  <!-- Wave arcs -->
  <path d="M 47.06 15.96 A 5 5 0 0 1 52.94 15.96" fill="none" stroke="#0f172a" stroke-width="1" stroke-linecap="round" opacity="0.7"/>
  <path d="M 52.94 24.04 A 5 5 0 0 1 47.06 24.04" fill="none" stroke="#0f172a" stroke-width="1" stroke-linecap="round" opacity="0.7"/>
  <path d="M 44.12 11.91 A 10 10 0 0 1 55.88 11.91" fill="none" stroke="#0f172a" stroke-width="1" stroke-linecap="round" opacity="0.45"/>
  <path d="M 55.88 28.09 A 10 10 0 0 1 44.12 28.09" fill="none" stroke="#0f172a" stroke-width="1" stroke-linecap="round" opacity="0.45"/>
  <path d="M 41.18 7.87 A 15 15 0 0 1 58.82 7.87" fill="none" stroke="#0f172a" stroke-width="1" stroke-linecap="round" opacity="0.25"/>
  <path d="M 58.82 32.13 A 15 15 0 0 1 41.18 32.13" fill="none" stroke="#0f172a" stroke-width="1" stroke-linecap="round" opacity="0.25"/>
  <!-- Tip dot -->
  <circle cx="50" cy="20" r="1.8" fill="#0f172a"/>
</svg>
