<svg xmlns="http://www.w3.org/2000/svg" viewBox="0 0 260 60">
  <defs>
    <linearGradient id="bg" x1="0" y1="0" x2="1" y2="1">
      <stop offset="0%" stop-color="#172554"/>
      <stop offset="100%" stop-color="#1e3a5f"/>
    </linearGradient>
  </defs>
  <!-- Icon -->
  <circle cx="30" cy="30" r="28" fill="url(#bg)"/>
  <path d="M 30 9 L 27.9 22.8 Q 27.9 24, 26.4 24 L 24.6 24 Q 23.4 24, 23.4 25.2 L 23.4 26.4 Q 23.4 27.6, 24.6 27.6 L 26.4 27.6 Q 27.9 27.6, 27.9 28.8 L 25.8 41.4 Q 25.8 42.6, 24 42.6 L 21.6 42.6 Q 20.4 42.6, 20.4 43.8 L 20.4 45.6 Q 20.4 46.8, 21.6 46.8 L 24 46.8 Q 25.2 46.8, 25.2 48 L 25.2 55.2 L 34.8 55.2 L 34.8 48 Q 34.8 46.8, 36 46.8 L 38.4 46.8 Q 39.6 46.8, 39.6 45.6 L 39.6 43.8 Q 39.6 42.6, 38.4 42.6 L 36 42.6 Q 34.2 42.6, 34.2 41.4 L 32.1 28.8 Q 32.1 27.6, 33.6 27.6 L 35.4 27.6 Q 36.6 27.6, 36.6 26.4 L 36.6 25.2 Q 36.6 24, 35.4 24 L 33.6 24 Q 32.1 24, 32.1 22.8 Z" fill="#ffffff"/>
  <circle cx="30" cy="9" r="1.8" fill="#f59e0b"/>
  <!-- Text -->
  <text x="68" y="38" font-family="-apple-system, BlinkMacSystemFont, 'Segoe UI', sans-serif" font-size="30" font-weight="700" letter-spacing="-0.5" fill="#ffffff">RigaCap</text>
</svg>
