<?xml version="1.0" encoding="utf-8" standalone="no"?>
<!DOCTYPE svg PUBLIC "-//W3C//DTD SVG 1.1//EN"
  "http://www.w3.org/Graphics/SVG/1.1/DTD/svg11.dtd">
<svg xmlns:xlink="http://www.w3.org/1999/xlink" width="711.000562pt" height="353.135876pt" viewBox="0 0 711.000562 353.135876" xmlns="http://www.w3.org/2000/svg" version="1.1">
 <metadata>
  <rdf:RDF xmlns:dc="http://purl.org/dc/elements/1.1/" xmlns:cc="http://creativecommons.org/ns#" xmlns:rdf="http://www.w3.org/1999/02/22-rdf-syntax-ns#">
   <cc:Work>
    <dc:type rdf:resource="http://purl.org/dc/dcmitype/StillImage"/>
    <dc:date>2026-04-06T20:22:07.652850</dc:date>
    <dc:format>image/svg+xml</dc:format>
    <dc:creator>
     <cc:Agent>
      <dc:title>Matplotlib v3.9.4, https://matplotlib.org/</dc:title>
     </cc:Agent>
    </dc:creator>
   </cc:Work>
  </rdf:RDF>
 </metadata>
 <defs>
  <style type="text/css">*{stroke-linejoin: round; stroke-linecap: butt}</style>
 </defs>
 <g id="figure_1">
  <g id="patch_1">
   <path d="M 0 353.135876 
L 711.000562 353.135876 
L 711.000562 0 
L 0 0 
z
" style="fill: #f8fafc"/>
  </g>
  <g id="axes_1">
   <g id="patch_2">
    <path d="M 43.148125 307.480231 
L 698.613176 307.480231 
L 698.613176 7.2 
L 43.148125 7.2 
z
" style="fill: #f8fafc"/>
   </g>
   <g id="PolyCollection_1">
    <path d="M 72.941991 286.284062 
L 77.510601 251.97554 
L 81.936922 280.787306 
L 77.510601 279.486734 
z
" clip-path="url(#pc972667942)" style="fill: #22c55e; fill-opacity: 0.1; stroke: #22c55e; stroke-opacity: 0.1"/>
    <path d="M 82.415829 280.617813 
L 86.647822 266.842779 
L 88.951495 278.108984 
L 86.647822 277.961301 
z
" clip-path="url(#pc972667942)" style="fill: #22c55e; fill-opacity: 0.1; stroke: #22c55e; stroke-opacity: 0.1"/>
    <path d="M 203.281161 265.855384 
L 205.431691 265.855384 
L 207.755359 261.578299 
L 205.431691 269.614133 
z
" clip-path="url(#pc972667942)" style="fill: #22c55e; fill-opacity: 0.1; stroke: #22c55e; stroke-opacity: 0.1"/>
    <path d="M 211.60634 256.091267 
L 214.568911 253.592043 
L 219.137522 253.592043 
L 223.706132 253.592043 
L 228.274742 253.592043 
L 232.843353 253.592043 
L 237.411963 253.592043 
L 241.980573 253.592043 
L 246.549183 253.592043 
L 251.117794 253.592043 
L 255.686404 253.592043 
L 260.255014 253.592043 
L 264.823625 253.592043 
L 269.392235 253.592043 
L 273.960845 253.592043 
L 278.529456 253.592043 
L 283.098066 253.592043 
L 287.666676 253.592043 
L 292.235287 253.796258 
L 296.803897 253.796258 
L 301.372507 253.796258 
L 305.941118 253.796258 
L 310.509728 259.28546 
L 315.078338 256.280181 
L 319.646949 267.843384 
L 324.215559 270.174409 
L 328.784169 273.133096 
L 333.35278 269.661414 
L 335.93715 271.925325 
L 333.35278 272.620253 
L 328.784169 277.957233 
L 324.215559 282.484717 
L 319.646949 277.452823 
L 315.078338 271.310414 
L 310.509728 276.289427 
L 305.941118 277.139601 
L 301.372507 283.676589 
L 296.803897 284.656933 
L 292.235287 276.696209 
L 287.666676 278.730119 
L 283.098066 284.685408 
L 278.529456 285.124733 
L 273.960845 292.792574 
L 269.392235 291.047479 
L 264.823625 272.067029 
L 260.255014 275.459591 
L 255.686404 264.789698 
L 251.117794 272.148385 
L 246.549183 283.871844 
L 241.980573 284.160659 
L 237.411963 290.416967 
L 232.843353 271.733468 
L 228.274742 277.782317 
L 223.706132 277.273839 
L 219.137522 264.932072 
L 214.568911 260.290689 
z
" clip-path="url(#pc972667942)" style="fill: #22c55e; fill-opacity: 0.1; stroke: #22c55e; stroke-opacity: 0.1"/>
    <path d="M 339.292087 271.378346 
L 342.49 266.046901 
L 347.058611 257.092701 
L 351.627221 246.145513 
L 356.195831 241.182927 
L 360.764442 238.944857 
L 365.333052 220.998211 
L 369.901662 219.75422 
L 374.470273 242.954104 
L 379.038883 249.097923 
L 383.607493 246.340831 
L 388.176104 251.105496 
L 392.744714 251.293632 
L 397.313324 253.041555 
L 401.881935 256.281447 
L 406.042749 255.131702 
L 401.881935 262.011377 
L 397.313324 268.206667 
L 392.744714 263.394436 
L 388.176104 263.418843 
L 383.607493 256.820838 
L 379.038883 259.135428 
L 374.470273 256.959144 
L 369.901662 253.021493 
L 365.333052 255.848629 
L 360.764442 258.716442 
L 356.195831 260.477808 
L 351.627221 265.505634 
L 347.058611 268.885993 
L 342.49 271.347025 
z
" clip-path="url(#pc972667942)" style="fill: #22c55e; fill-opacity: 0.1; stroke: #22c55e; stroke-opacity: 0.1"/>
    <path d="M 417.538644 246.673155 
L 420.156376 242.686209 
L 424.724986 242.175163 
L 429.293597 235.100455 
L 433.862207 233.242764 
L 434.625665 235.112011 
L 433.862207 235.452577 
L 429.293597 239.40243 
L 424.724986 245.33738 
L 420.156376 245.894672 
z
" clip-path="url(#pc972667942)" style="fill: #22c55e; fill-opacity: 0.1; stroke: #22c55e; stroke-opacity: 0.1"/>
    <path d="M 443.743096 230.700555 
L 447.568038 211.394926 
L 452.136648 206.31393 
L 456.705259 220.243044 
L 461.273869 212.512372 
L 465.842479 208.544599 
L 470.41109 215.35018 
L 474.027689 218.327765 
L 470.41109 224.542682 
L 465.842479 223.623354 
L 461.273869 229.110844 
L 456.705259 235.965122 
L 452.136648 228.236263 
L 447.568038 227.809142 
z
" clip-path="url(#pc972667942)" style="fill: #22c55e; fill-opacity: 0.1; stroke: #22c55e; stroke-opacity: 0.1"/>
    <path d="M 496.871489 213.453857 
L 497.822752 205.459595 
L 502.391362 208.615661 
L 506.959972 204.671946 
L 511.528583 203.194153 
L 514.313966 204.345461 
L 511.528583 208.2714 
L 506.959972 207.510717 
L 502.391362 216.972468 
L 497.822752 211.122942 
z
" clip-path="url(#pc972667942)" style="fill: #22c55e; fill-opacity: 0.1; stroke: #22c55e; stroke-opacity: 0.1"/>
    <path d="M 542.936535 202.395185 
L 543.508855 202.171179 
L 544.271699 201.521986 
L 543.508855 202.743232 
z
" clip-path="url(#pc972667942)" style="fill: #22c55e; fill-opacity: 0.1; stroke: #22c55e; stroke-opacity: 0.1"/>
    <path d="M 558.712875 201.194251 
L 561.783296 194.519487 
L 566.351907 194.519487 
L 570.920517 200.343889 
L 575.489127 200.343889 
L 580.057738 200.343889 
L 584.626348 194.132532 
L 585.879146 197.506656 
L 584.626348 197.267945 
L 580.057738 210.016495 
L 575.489127 230.205088 
L 570.920517 234.069518 
L 566.351907 205.716809 
L 561.783296 211.208366 
z
" clip-path="url(#pc972667942)" style="fill: #22c55e; fill-opacity: 0.1; stroke: #22c55e; stroke-opacity: 0.1"/>
    <path d="M 595.678556 191.496243 
L 598.332179 179.631857 
L 602.900789 165.22348 
L 607.4694 154.043514 
L 612.03801 145.744231 
L 616.60662 144.041943 
L 621.175231 157.384996 
L 625.743841 121.983726 
L 630.312451 100.695679 
L 634.881062 100.594115 
L 639.449672 86.777271 
L 644.018282 93.615091 
L 648.586893 86.564297 
L 653.155503 69.671024 
L 657.724113 68.266653 
L 662.292724 38.328922 
L 666.861334 20.849101 
L 668.81931 38.421614 
L 668.81931 38.421614 
L 668.81931 157.761273 
L 666.861334 157.452118 
L 662.292724 156.463638 
L 657.724113 159.437215 
L 653.155503 162.333503 
L 648.586893 162.520623 
L 644.018282 168.459641 
L 639.449672 161.271802 
L 634.881062 166.169458 
L 630.312451 166.043355 
L 625.743841 167.983706 
L 621.175231 175.30985 
L 616.60662 177.896984 
L 612.03801 180.561407 
L 607.4694 180.146489 
L 602.900789 185.080755 
L 598.332179 187.911958 
z
" clip-path="url(#pc972667942)" style="fill: #22c55e; fill-opacity: 0.1; stroke: #22c55e; stroke-opacity: 0.1"/>
   </g>
   <g id="PolyCollection_2">
    <path d="M 72.941991 286.284062 
L 72.941991 286.284062 
L 72.941991 286.284062 
L 72.941991 286.284062 
z
" clip-path="url(#pc972667942)" style="fill: #ef4444; fill-opacity: 0.1; stroke: #ef4444; stroke-opacity: 0.1"/>
    <path d="M 81.936922 280.787306 
L 82.079212 281.713494 
L 82.415829 280.617813 
L 82.079212 280.829114 
z
" clip-path="url(#pc972667942)" style="fill: #ef4444; fill-opacity: 0.1; stroke: #ef4444; stroke-opacity: 0.1"/>
    <path d="M 88.951495 278.108984 
L 91.216432 289.18575 
L 95.785043 282.853366 
L 100.353653 279.725588 
L 104.922263 278.943957 
L 109.490874 282.085803 
L 114.059484 282.903017 
L 118.628094 293.831129 
L 123.196705 290.632085 
L 127.765315 291.791244 
L 132.333925 282.192183 
L 136.902536 276.035821 
L 141.471146 275.562522 
L 146.039756 276.364553 
L 150.608367 274.328582 
L 155.176977 278.121596 
L 159.745587 269.694986 
L 164.314198 264.489885 
L 168.882808 270.693594 
L 173.451418 268.148509 
L 178.020029 268.6789 
L 182.588639 263.493774 
L 187.157249 265.62033 
L 191.72586 274.475048 
L 196.29447 266.63213 
L 200.86308 265.855384 
L 203.281161 265.855384 
L 200.86308 261.629002 
L 196.29447 260.656792 
L 191.72586 256.226936 
L 187.157249 250.202494 
L 182.588639 244.918395 
L 178.020029 254.164551 
L 173.451418 252.614711 
L 168.882808 249.043165 
L 164.314198 248.489941 
L 159.745587 253.932685 
L 155.176977 262.418159 
L 150.608367 259.184241 
L 146.039756 257.58152 
L 141.471146 255.283202 
L 136.902536 257.422875 
L 132.333925 261.238491 
L 127.765315 266.37208 
L 123.196705 262.812737 
L 118.628094 268.043954 
L 114.059484 267.47446 
L 109.490874 268.731416 
L 104.922263 269.231758 
L 100.353653 269.365996 
L 95.785043 271.794485 
L 91.216432 278.254184 
z
" clip-path="url(#pc972667942)" style="fill: #ef4444; fill-opacity: 0.1; stroke: #ef4444; stroke-opacity: 0.1"/>
    <path d="M 207.755359 261.578299 
L 210.000301 257.446121 
L 211.60634 256.091267 
L 210.000301 253.814718 
z
" clip-path="url(#pc972667942)" style="fill: #ef4444; fill-opacity: 0.1; stroke: #ef4444; stroke-opacity: 0.1"/>
    <path d="M 335.93715 271.925325 
L 337.92139 273.663522 
L 339.292087 271.378346 
L 337.92139 271.391771 
z
" clip-path="url(#pc972667942)" style="fill: #ef4444; fill-opacity: 0.1; stroke: #ef4444; stroke-opacity: 0.1"/>
    <path d="M 406.042749 255.131702 
L 406.450545 255.019017 
L 411.019155 255.719065 
L 415.587766 249.644448 
L 417.538644 246.673155 
L 415.587766 247.253324 
L 411.019155 253.468954 
L 406.450545 254.457434 
z
" clip-path="url(#pc972667942)" style="fill: #ef4444; fill-opacity: 0.1; stroke: #ef4444; stroke-opacity: 0.1"/>
    <path d="M 434.625665 235.112011 
L 438.430817 244.428536 
L 442.999428 234.454074 
L 443.743096 230.700555 
L 442.999428 231.262721 
L 438.430817 233.414598 
z
" clip-path="url(#pc972667942)" style="fill: #ef4444; fill-opacity: 0.1; stroke: #ef4444; stroke-opacity: 0.1"/>
    <path d="M 474.027689 218.327765 
L 474.9797 219.111567 
L 479.54831 224.394703 
L 484.116921 219.195392 
L 488.685531 233.872518 
L 493.254141 243.853487 
L 496.871489 213.453857 
L 493.254141 222.317584 
L 488.685531 217.643658 
L 484.116921 210.821923 
L 479.54831 217.407725 
L 474.9797 216.691788 
z
" clip-path="url(#pc972667942)" style="fill: #ef4444; fill-opacity: 0.1; stroke: #ef4444; stroke-opacity: 0.1"/>
    <path d="M 514.313966 204.345461 
L 516.097193 205.082538 
L 520.665803 213.746447 
L 525.234414 210.228713 
L 529.803024 198.022291 
L 534.371634 197.901681 
L 538.940245 203.959329 
L 542.936535 202.395185 
L 538.940245 199.96491 
L 534.371634 192.410968 
L 529.803024 193.696399 
L 525.234414 199.993385 
L 520.665803 207.453768 
L 516.097193 201.83204 
z
" clip-path="url(#pc972667942)" style="fill: #ef4444; fill-opacity: 0.1; stroke: #ef4444; stroke-opacity: 0.1"/>
    <path d="M 544.271699 201.521986 
L 548.077465 198.283214 
L 552.646076 198.30731 
L 557.214686 204.451151 
L 558.712875 201.194251 
L 557.214686 196.30794 
L 552.646076 193.200125 
L 548.077465 195.429291 
z
" clip-path="url(#pc972667942)" style="fill: #ef4444; fill-opacity: 0.1; stroke: #ef4444; stroke-opacity: 0.1"/>
    <path d="M 585.879146 197.506656 
L 589.194958 206.437039 
L 593.763569 200.058177 
L 595.678556 191.496243 
L 593.763569 194.082842 
L 589.194958 198.138459 
z
" clip-path="url(#pc972667942)" style="fill: #ef4444; fill-opacity: 0.1; stroke: #ef4444; stroke-opacity: 0.1"/>
   </g>
   <g id="matplotlib.axis_1">
    <g id="xtick_1">
     <g id="line2d_1">
      <path d="M 92.19542 307.480231 
L 92.19542 7.2 
" clip-path="url(#pc972667942)" style="fill: none; stroke: #e2e8f0; stroke-opacity: 0.3; stroke-width: 0.8; stroke-linecap: square"/>
     </g>
     <g id="line2d_2">
      <defs>
       <path id="mdce8db04df" d="M 0 0 
L 0 3.5 
" style="stroke: #000000; stroke-width: 0.8"/>
      </defs>
      <g>
       <use xlink:href="#mdce8db04df" x="92.19542" y="307.480231" style="stroke: #000000; stroke-width: 0.8"/>
      </g>
     </g>
     <g id="text_1">
      <!-- Apr 2021 -->
      <g style="fill: #64748b" transform="translate(80.765923 344.759427) rotate(-45) scale(0.08 -0.08)">
       <defs>
        <path id="DejaVuSans-41" d="M 2188 4044 
L 1331 1722 
L 3047 1722 
L 2188 4044 
z
M 1831 4666 
L 2547 4666 
L 4325 0 
L 3669 0 
L 3244 1197 
L 1141 1197 
L 716 0 
L 50 0 
L 1831 4666 
z
" transform="scale(0.015625)"/>
        <path id="DejaVuSans-70" d="M 1159 525 
L 1159 -1331 
L 581 -1331 
L 581 3500 
L 1159 3500 
L 1159 2969 
Q 1341 3281 1617 3432 
Q 1894 3584 2278 3584 
Q 2916 3584 3314 3078 
Q 3713 2572 3713 1747 
Q 3713 922 3314 415 
Q 2916 -91 2278 -91 
Q 1894 -91 1617 61 
Q 1341 213 1159 525 
z
M 3116 1747 
Q 3116 2381 2855 2742 
Q 2594 3103 2138 3103 
Q 1681 3103 1420 2742 
Q 1159 2381 1159 1747 
Q 1159 1113 1420 752 
Q 1681 391 2138 391 
Q 2594 391 2855 752 
Q 3116 1113 3116 1747 
z
" transform="scale(0.015625)"/>
        <path id="DejaVuSans-72" d="M 2631 2963 
Q 2534 3019 2420 3045 
Q 2306 3072 2169 3072 
Q 1681 3072 1420 2755 
Q 1159 2438 1159 1844 
L 1159 0 
L 581 0 
L 581 3500 
L 1159 3500 
L 1159 2956 
Q 1341 3275 1631 3429 
Q 1922 3584 2338 3584 
Q 2397 3584 2469 3576 
Q 2541 3569 2628 3553 
L 2631 2963 
z
" transform="scale(0.015625)"/>
        <path id="DejaVuSans-20" transform="scale(0.015625)"/>
        <path id="DejaVuSans-32" d="M 1228 531 
L 3431 531 
L 3431 0 
L 469 0 
L 469 531 
Q 828 903 1448 1529 
Q 2069 2156 2228 2338 
Q 2531 2678 2651 2914 
Q 2772 3150 2772 3378 
Q 2772 3750 2511 3984 
Q 2250 4219 1831 4219 
Q 1534 4219 1204 4116 
Q 875 4013 500 3803 
L 500 4441 
Q 881 4594 1212 4672 
Q 1544 4750 1819 4750 
Q 2544 4750 2975 4387 
Q 3406 4025 3406 3419 
Q 3406 3131 3298 2873 
Q 3191 2616 2906 2266 
Q 2828 2175 2409 1742 
Q 1991 1309 1228 531 
z
" transform="scale(0.015625)"/>
        <path id="DejaVuSans-30" d="M 2034 4250 
Q 1547 4250 1301 3770 
Q 1056 3291 1056 2328 
Q 1056 1369 1301 889 
Q 1547 409 2034 409 
Q 2525 409 2770 889 
Q 3016 1369 3016 2328 
Q 3016 3291 2770 3770 
Q 2525 4250 2034 4250 
z
M 2034 4750 
Q 2819 4750 3233 4129 
Q 3647 3509 3647 2328 
Q 3647 1150 3233 529 
Q 2819 -91 2034 -91 
Q 1250 -91 836 529 
Q 422 1150 422 2328 
Q 422 3509 836 4129 
Q 1250 4750 2034 4750 
z
" transform="scale(0.015625)"/>
        <path id="DejaVuSans-31" d="M 794 531 
L 1825 531 
L 1825 4091 
L 703 3866 
L 703 4441 
L 1819 4666 
L 2450 4666 
L 2450 531 
L 3481 531 
L 3481 0 
L 794 0 
L 794 531 
z
" transform="scale(0.015625)"/>
       </defs>
       <use xlink:href="#DejaVuSans-41"/>
       <use xlink:href="#DejaVuSans-70" x="68.408203"/>
       <use xlink:href="#DejaVuSans-72" x="131.884766"/>
       <use xlink:href="#DejaVuSans-20" x="172.998047"/>
       <use xlink:href="#DejaVuSans-32" x="204.785156"/>
       <use xlink:href="#DejaVuSans-30" x="268.408203"/>
       <use xlink:href="#DejaVuSans-32" x="332.03125"/>
       <use xlink:href="#DejaVuSans-31" x="395.654297"/>
      </g>
     </g>
    </g>
    <g id="xtick_2">
     <g id="line2d_3">
      <path d="M 151.913684 307.480231 
L 151.913684 7.2 
" clip-path="url(#pc972667942)" style="fill: none; stroke: #e2e8f0; stroke-opacity: 0.3; stroke-width: 0.8; stroke-linecap: square"/>
     </g>
     <g id="line2d_4">
      <g>
       <use xlink:href="#mdce8db04df" x="151.913684" y="307.480231" style="stroke: #000000; stroke-width: 0.8"/>
      </g>
     </g>
     <g id="text_2">
      <!-- Oct 2021 -->
      <g style="fill: #64748b" transform="translate(140.486838 344.754124) rotate(-45) scale(0.08 -0.08)">
       <defs>
        <path id="DejaVuSans-4f" d="M 2522 4238 
Q 1834 4238 1429 3725 
Q 1025 3213 1025 2328 
Q 1025 1447 1429 934 
Q 1834 422 2522 422 
Q 3209 422 3611 934 
Q 4013 1447 4013 2328 
Q 4013 3213 3611 3725 
Q 3209 4238 2522 4238 
z
M 2522 4750 
Q 3503 4750 4090 4092 
Q 4678 3434 4678 2328 
Q 4678 1225 4090 567 
Q 3503 -91 2522 -91 
Q 1538 -91 948 565 
Q 359 1222 359 2328 
Q 359 3434 948 4092 
Q 1538 4750 2522 4750 
z
" transform="scale(0.015625)"/>
        <path id="DejaVuSans-63" d="M 3122 3366 
L 3122 2828 
Q 2878 2963 2633 3030 
Q 2388 3097 2138 3097 
Q 1578 3097 1268 2742 
Q 959 2388 959 1747 
Q 959 1106 1268 751 
Q 1578 397 2138 397 
Q 2388 397 2633 464 
Q 2878 531 3122 666 
L 3122 134 
Q 2881 22 2623 -34 
Q 2366 -91 2075 -91 
Q 1284 -91 818 406 
Q 353 903 353 1747 
Q 353 2603 823 3093 
Q 1294 3584 2113 3584 
Q 2378 3584 2631 3529 
Q 2884 3475 3122 3366 
z
" transform="scale(0.015625)"/>
        <path id="DejaVuSans-74" d="M 1172 4494 
L 1172 3500 
L 2356 3500 
L 2356 3053 
L 1172 3053 
L 1172 1153 
Q 1172 725 1289 603 
Q 1406 481 1766 481 
L 2356 481 
L 2356 0 
L 1766 0 
Q 1100 0 847 248 
Q 594 497 594 1153 
L 594 3053 
L 172 3053 
L 172 3500 
L 594 3500 
L 594 4494 
L 1172 4494 
z
" transform="scale(0.015625)"/>
       </defs>
       <use xlink:href="#DejaVuSans-4f"/>
       <use xlink:href="#DejaVuSans-63" x="78.710938"/>
       <use xlink:href="#DejaVuSans-74" x="133.691406"/>
       <use xlink:href="#DejaVuSans-20" x="172.900391"/>
       <use xlink:href="#DejaVuSans-32" x="204.6875"/>
       <use xlink:href="#DejaVuSans-30" x="268.310547"/>
       <use xlink:href="#DejaVuSans-32" x="331.933594"/>
       <use xlink:href="#DejaVuSans-31" x="395.556641"/>
      </g>
     </g>
    </g>
    <g id="xtick_3">
     <g id="line2d_5">
      <path d="M 211.305618 307.480231 
L 211.305618 7.2 
" clip-path="url(#pc972667942)" style="fill: none; stroke: #e2e8f0; stroke-opacity: 0.3; stroke-width: 0.8; stroke-linecap: square"/>
     </g>
     <g id="line2d_6">
      <g>
       <use xlink:href="#mdce8db04df" x="211.305618" y="307.480231" style="stroke: #000000; stroke-width: 0.8"/>
      </g>
     </g>
     <g id="text_3">
      <!-- Apr 2022 -->
      <g style="fill: #64748b" transform="translate(199.876121 344.759427) rotate(-45) scale(0.08 -0.08)">
       <use xlink:href="#DejaVuSans-41"/>
       <use xlink:href="#DejaVuSans-70" x="68.408203"/>
       <use xlink:href="#DejaVuSans-72" x="131.884766"/>
       <use xlink:href="#DejaVuSans-20" x="172.998047"/>
       <use xlink:href="#DejaVuSans-32" x="204.785156"/>
       <use xlink:href="#DejaVuSans-30" x="268.408203"/>
       <use xlink:href="#DejaVuSans-32" x="332.03125"/>
       <use xlink:href="#DejaVuSans-32" x="395.654297"/>
      </g>
     </g>
    </g>
    <g id="xtick_4">
     <g id="line2d_7">
      <path d="M 271.023882 307.480231 
L 271.023882 7.2 
" clip-path="url(#pc972667942)" style="fill: none; stroke: #e2e8f0; stroke-opacity: 0.3; stroke-width: 0.8; stroke-linecap: square"/>
     </g>
     <g id="line2d_8">
      <g>
       <use xlink:href="#mdce8db04df" x="271.023882" y="307.480231" style="stroke: #000000; stroke-width: 0.8"/>
      </g>
     </g>
     <g id="text_4">
      <!-- Oct 2022 -->
      <g style="fill: #64748b" transform="translate(259.597036 344.754124) rotate(-45) scale(0.08 -0.08)">
       <use xlink:href="#DejaVuSans-4f"/>
       <use xlink:href="#DejaVuSans-63" x="78.710938"/>
       <use xlink:href="#DejaVuSans-74" x="133.691406"/>
       <use xlink:href="#DejaVuSans-20" x="172.900391"/>
       <use xlink:href="#DejaVuSans-32" x="204.6875"/>
       <use xlink:href="#DejaVuSans-30" x="268.310547"/>
       <use xlink:href="#DejaVuSans-32" x="331.933594"/>
       <use xlink:href="#DejaVuSans-32" x="395.556641"/>
      </g>
     </g>
    </g>
    <g id="xtick_5">
     <g id="line2d_9">
      <path d="M 330.415816 307.480231 
L 330.415816 7.2 
" clip-path="url(#pc972667942)" style="fill: none; stroke: #e2e8f0; stroke-opacity: 0.3; stroke-width: 0.8; stroke-linecap: square"/>
     </g>
     <g id="line2d_10">
      <g>
       <use xlink:href="#mdce8db04df" x="330.415816" y="307.480231" style="stroke: #000000; stroke-width: 0.8"/>
      </g>
     </g>
     <g id="text_5">
      <!-- Apr 2023 -->
      <g style="fill: #64748b" transform="translate(318.986319 344.759427) rotate(-45) scale(0.08 -0.08)">
       <defs>
        <path id="DejaVuSans-33" d="M 2597 2516 
Q 3050 2419 3304 2112 
Q 3559 1806 3559 1356 
Q 3559 666 3084 287 
Q 2609 -91 1734 -91 
Q 1441 -91 1130 -33 
Q 819 25 488 141 
L 488 750 
Q 750 597 1062 519 
Q 1375 441 1716 441 
Q 2309 441 2620 675 
Q 2931 909 2931 1356 
Q 2931 1769 2642 2001 
Q 2353 2234 1838 2234 
L 1294 2234 
L 1294 2753 
L 1863 2753 
Q 2328 2753 2575 2939 
Q 2822 3125 2822 3475 
Q 2822 3834 2567 4026 
Q 2313 4219 1838 4219 
Q 1578 4219 1281 4162 
Q 984 4106 628 3988 
L 628 4550 
Q 988 4650 1302 4700 
Q 1616 4750 1894 4750 
Q 2613 4750 3031 4423 
Q 3450 4097 3450 3541 
Q 3450 3153 3228 2886 
Q 3006 2619 2597 2516 
z
" transform="scale(0.015625)"/>
       </defs>
       <use xlink:href="#DejaVuSans-41"/>
       <use xlink:href="#DejaVuSans-70" x="68.408203"/>
       <use xlink:href="#DejaVuSans-72" x="131.884766"/>
       <use xlink:href="#DejaVuSans-20" x="172.998047"/>
       <use xlink:href="#DejaVuSans-32" x="204.785156"/>
       <use xlink:href="#DejaVuSans-30" x="268.408203"/>
       <use xlink:href="#DejaVuSans-32" x="332.03125"/>
       <use xlink:href="#DejaVuSans-33" x="395.654297"/>
      </g>
     </g>
    </g>
    <g id="xtick_6">
     <g id="line2d_11">
      <path d="M 390.13408 307.480231 
L 390.13408 7.2 
" clip-path="url(#pc972667942)" style="fill: none; stroke: #e2e8f0; stroke-opacity: 0.3; stroke-width: 0.8; stroke-linecap: square"/>
     </g>
     <g id="line2d_12">
      <g>
       <use xlink:href="#mdce8db04df" x="390.13408" y="307.480231" style="stroke: #000000; stroke-width: 0.8"/>
      </g>
     </g>
     <g id="text_6">
      <!-- Oct 2023 -->
      <g style="fill: #64748b" transform="translate(378.707234 344.754124) rotate(-45) scale(0.08 -0.08)">
       <use xlink:href="#DejaVuSans-4f"/>
       <use xlink:href="#DejaVuSans-63" x="78.710938"/>
       <use xlink:href="#DejaVuSans-74" x="133.691406"/>
       <use xlink:href="#DejaVuSans-20" x="172.900391"/>
       <use xlink:href="#DejaVuSans-32" x="204.6875"/>
       <use xlink:href="#DejaVuSans-30" x="268.310547"/>
       <use xlink:href="#DejaVuSans-32" x="331.933594"/>
       <use xlink:href="#DejaVuSans-33" x="395.556641"/>
      </g>
     </g>
    </g>
    <g id="xtick_7">
     <g id="line2d_13">
      <path d="M 449.852343 307.480231 
L 449.852343 7.2 
" clip-path="url(#pc972667942)" style="fill: none; stroke: #e2e8f0; stroke-opacity: 0.3; stroke-width: 0.8; stroke-linecap: square"/>
     </g>
     <g id="line2d_14">
      <g>
       <use xlink:href="#mdce8db04df" x="449.852343" y="307.480231" style="stroke: #000000; stroke-width: 0.8"/>
      </g>
     </g>
     <g id="text_7">
      <!-- Apr 2024 -->
      <g style="fill: #64748b" transform="translate(438.422846 344.759427) rotate(-45) scale(0.08 -0.08)">
       <defs>
        <path id="DejaVuSans-34" d="M 2419 4116 
L 825 1625 
L 2419 1625 
L 2419 4116 
z
M 2253 4666 
L 3047 4666 
L 3047 1625 
L 3713 1625 
L 3713 1100 
L 3047 1100 
L 3047 0 
L 2419 0 
L 2419 1100 
L 313 1100 
L 313 1709 
L 2253 4666 
z
" transform="scale(0.015625)"/>
       </defs>
       <use xlink:href="#DejaVuSans-41"/>
       <use xlink:href="#DejaVuSans-70" x="68.408203"/>
       <use xlink:href="#DejaVuSans-72" x="131.884766"/>
       <use xlink:href="#DejaVuSans-20" x="172.998047"/>
       <use xlink:href="#DejaVuSans-32" x="204.785156"/>
       <use xlink:href="#DejaVuSans-30" x="268.408203"/>
       <use xlink:href="#DejaVuSans-32" x="332.03125"/>
       <use xlink:href="#DejaVuSans-34" x="395.654297"/>
      </g>
     </g>
    </g>
    <g id="xtick_8">
     <g id="line2d_15">
      <path d="M 509.570607 307.480231 
L 509.570607 7.2 
" clip-path="url(#pc972667942)" style="fill: none; stroke: #e2e8f0; stroke-opacity: 0.3; stroke-width: 0.8; stroke-linecap: square"/>
     </g>
     <g id="line2d_16">
      <g>
       <use xlink:href="#mdce8db04df" x="509.570607" y="307.480231" style="stroke: #000000; stroke-width: 0.8"/>
      </g>
     </g>
     <g id="text_8">
      <!-- Oct 2024 -->
      <g style="fill: #64748b" transform="translate(498.143761 344.754124) rotate(-45) scale(0.08 -0.08)">
       <use xlink:href="#DejaVuSans-4f"/>
       <use xlink:href="#DejaVuSans-63" x="78.710938"/>
       <use xlink:href="#DejaVuSans-74" x="133.691406"/>
       <use xlink:href="#DejaVuSans-20" x="172.900391"/>
       <use xlink:href="#DejaVuSans-32" x="204.6875"/>
       <use xlink:href="#DejaVuSans-30" x="268.310547"/>
       <use xlink:href="#DejaVuSans-32" x="331.933594"/>
       <use xlink:href="#DejaVuSans-34" x="395.556641"/>
      </g>
     </g>
    </g>
    <g id="xtick_9">
     <g id="line2d_17">
      <path d="M 568.962541 307.480231 
L 568.962541 7.2 
" clip-path="url(#pc972667942)" style="fill: none; stroke: #e2e8f0; stroke-opacity: 0.3; stroke-width: 0.8; stroke-linecap: square"/>
     </g>
     <g id="line2d_18">
      <g>
       <use xlink:href="#mdce8db04df" x="568.962541" y="307.480231" style="stroke: #000000; stroke-width: 0.8"/>
      </g>
     </g>
     <g id="text_9">
      <!-- Apr 2025 -->
      <g style="fill: #64748b" transform="translate(557.533044 344.759427) rotate(-45) scale(0.08 -0.08)">
       <defs>
        <path id="DejaVuSans-35" d="M 691 4666 
L 3169 4666 
L 3169 4134 
L 1269 4134 
L 1269 2991 
Q 1406 3038 1543 3061 
Q 1681 3084 1819 3084 
Q 2600 3084 3056 2656 
Q 3513 2228 3513 1497 
Q 3513 744 3044 326 
Q 2575 -91 1722 -91 
Q 1428 -91 1123 -41 
Q 819 9 494 109 
L 494 744 
Q 775 591 1075 516 
Q 1375 441 1709 441 
Q 2250 441 2565 725 
Q 2881 1009 2881 1497 
Q 2881 1984 2565 2268 
Q 2250 2553 1709 2553 
Q 1456 2553 1204 2497 
Q 953 2441 691 2322 
L 691 4666 
z
" transform="scale(0.015625)"/>
       </defs>
       <use xlink:href="#DejaVuSans-41"/>
       <use xlink:href="#DejaVuSans-70" x="68.408203"/>
       <use xlink:href="#DejaVuSans-72" x="131.884766"/>
       <use xlink:href="#DejaVuSans-20" x="172.998047"/>
       <use xlink:href="#DejaVuSans-32" x="204.785156"/>
       <use xlink:href="#DejaVuSans-30" x="268.408203"/>
       <use xlink:href="#DejaVuSans-32" x="332.03125"/>
       <use xlink:href="#DejaVuSans-35" x="395.654297"/>
      </g>
     </g>
    </g>
    <g id="xtick_10">
     <g id="line2d_19">
      <path d="M 628.680805 307.480231 
L 628.680805 7.2 
" clip-path="url(#pc972667942)" style="fill: none; stroke: #e2e8f0; stroke-opacity: 0.3; stroke-width: 0.8; stroke-linecap: square"/>
     </g>
     <g id="line2d_20">
      <g>
       <use xlink:href="#mdce8db04df" x="628.680805" y="307.480231" style="stroke: #000000; stroke-width: 0.8"/>
      </g>
     </g>
     <g id="text_10">
      <!-- Oct 2025 -->
      <g style="fill: #64748b" transform="translate(617.253959 344.754124) rotate(-45) scale(0.08 -0.08)">
       <use xlink:href="#DejaVuSans-4f"/>
       <use xlink:href="#DejaVuSans-63" x="78.710938"/>
       <use xlink:href="#DejaVuSans-74" x="133.691406"/>
       <use xlink:href="#DejaVuSans-20" x="172.900391"/>
       <use xlink:href="#DejaVuSans-32" x="204.6875"/>
       <use xlink:href="#DejaVuSans-30" x="268.310547"/>
       <use xlink:href="#DejaVuSans-32" x="331.933594"/>
       <use xlink:href="#DejaVuSans-35" x="395.556641"/>
      </g>
     </g>
    </g>
    <g id="xtick_11">
     <g id="line2d_21">
      <path d="M 688.072739 307.480231 
L 688.072739 7.2 
" clip-path="url(#pc972667942)" style="fill: none; stroke: #e2e8f0; stroke-opacity: 0.3; stroke-width: 0.8; stroke-linecap: square"/>
     </g>
     <g id="line2d_22">
      <g>
       <use xlink:href="#mdce8db04df" x="688.072739" y="307.480231" style="stroke: #000000; stroke-width: 0.8"/>
      </g>
     </g>
     <g id="text_11">
      <!-- Apr 2026 -->
      <g style="fill: #64748b" transform="translate(676.643242 344.759427) rotate(-45) scale(0.08 -0.08)">
       <defs>
        <path id="DejaVuSans-36" d="M 2113 2584 
Q 1688 2584 1439 2293 
Q 1191 2003 1191 1497 
Q 1191 994 1439 701 
Q 1688 409 2113 409 
Q 2538 409 2786 701 
Q 3034 994 3034 1497 
Q 3034 2003 2786 2293 
Q 2538 2584 2113 2584 
z
M 3366 4563 
L 3366 3988 
Q 3128 4100 2886 4159 
Q 2644 4219 2406 4219 
Q 1781 4219 1451 3797 
Q 1122 3375 1075 2522 
Q 1259 2794 1537 2939 
Q 1816 3084 2150 3084 
Q 2853 3084 3261 2657 
Q 3669 2231 3669 1497 
Q 3669 778 3244 343 
Q 2819 -91 2113 -91 
Q 1303 -91 875 529 
Q 447 1150 447 2328 
Q 447 3434 972 4092 
Q 1497 4750 2381 4750 
Q 2619 4750 2861 4703 
Q 3103 4656 3366 4563 
z
" transform="scale(0.015625)"/>
       </defs>
       <use xlink:href="#DejaVuSans-41"/>
       <use xlink:href="#DejaVuSans-70" x="68.408203"/>
       <use xlink:href="#DejaVuSans-72" x="131.884766"/>
       <use xlink:href="#DejaVuSans-20" x="172.998047"/>
       <use xlink:href="#DejaVuSans-32" x="204.785156"/>
       <use xlink:href="#DejaVuSans-30" x="268.408203"/>
       <use xlink:href="#DejaVuSans-32" x="332.03125"/>
       <use xlink:href="#DejaVuSans-36" x="395.654297"/>
      </g>
     </g>
    </g>
   </g>
   <g id="matplotlib.axis_2">
    <g id="ytick_1">
     <g id="line2d_23">
      <path d="M 43.148125 286.284062 
L 698.613176 286.284062 
" clip-path="url(#pc972667942)" style="fill: none; stroke: #e2e8f0; stroke-opacity: 0.3; stroke-width: 0.8; stroke-linecap: square"/>
     </g>
     <g id="line2d_24">
      <defs>
       <path id="m9b19bf2da2" d="M 0 0 
L -3.5 0 
" style="stroke: #000000; stroke-width: 0.8"/>
      </defs>
      <g>
       <use xlink:href="#m9b19bf2da2" x="43.148125" y="286.284062" style="stroke: #000000; stroke-width: 0.8"/>
      </g>
     </g>
     <g id="text_12">
      <!-- 100 -->
      <g style="fill: #64748b" transform="translate(20.878125 289.323437) scale(0.08 -0.08)">
       <use xlink:href="#DejaVuSans-31"/>
       <use xlink:href="#DejaVuSans-30" x="63.623047"/>
       <use xlink:href="#DejaVuSans-30" x="127.246094"/>
      </g>
     </g>
    </g>
    <g id="ytick_2">
     <g id="line2d_25">
      <path d="M 43.148125 248.044515 
L 698.613176 248.044515 
" clip-path="url(#pc972667942)" style="fill: none; stroke: #e2e8f0; stroke-opacity: 0.3; stroke-width: 0.8; stroke-linecap: square"/>
     </g>
     <g id="line2d_26">
      <g>
       <use xlink:href="#m9b19bf2da2" x="43.148125" y="248.044515" style="stroke: #000000; stroke-width: 0.8"/>
      </g>
     </g>
     <g id="text_13">
      <!-- 125 -->
      <g style="fill: #64748b" transform="translate(20.878125 251.08389) scale(0.08 -0.08)">
       <use xlink:href="#DejaVuSans-31"/>
       <use xlink:href="#DejaVuSans-32" x="63.623047"/>
       <use xlink:href="#DejaVuSans-35" x="127.246094"/>
      </g>
     </g>
    </g>
    <g id="ytick_3">
     <g id="line2d_27">
      <path d="M 43.148125 209.804968 
L 698.613176 209.804968 
" clip-path="url(#pc972667942)" style="fill: none; stroke: #e2e8f0; stroke-opacity: 0.3; stroke-width: 0.8; stroke-linecap: square"/>
     </g>
     <g id="line2d_28">
      <g>
       <use xlink:href="#m9b19bf2da2" x="43.148125" y="209.804968" style="stroke: #000000; stroke-width: 0.8"/>
      </g>
     </g>
     <g id="text_14">
      <!-- 150 -->
      <g style="fill: #64748b" transform="translate(20.878125 212.844343) scale(0.08 -0.08)">
       <use xlink:href="#DejaVuSans-31"/>
       <use xlink:href="#DejaVuSans-35" x="63.623047"/>
       <use xlink:href="#DejaVuSans-30" x="127.246094"/>
      </g>
     </g>
    </g>
    <g id="ytick_4">
     <g id="line2d_29">
      <path d="M 43.148125 171.565421 
L 698.613176 171.565421 
" clip-path="url(#pc972667942)" style="fill: none; stroke: #e2e8f0; stroke-opacity: 0.3; stroke-width: 0.8; stroke-linecap: square"/>
     </g>
     <g id="line2d_30">
      <g>
       <use xlink:href="#m9b19bf2da2" x="43.148125" y="171.565421" style="stroke: #000000; stroke-width: 0.8"/>
      </g>
     </g>
     <g id="text_15">
      <!-- 175 -->
      <g style="fill: #64748b" transform="translate(20.878125 174.604796) scale(0.08 -0.08)">
       <defs>
        <path id="DejaVuSans-37" d="M 525 4666 
L 3525 4666 
L 3525 4397 
L 1831 0 
L 1172 0 
L 2766 4134 
L 525 4134 
L 525 4666 
z
" transform="scale(0.015625)"/>
       </defs>
       <use xlink:href="#DejaVuSans-31"/>
       <use xlink:href="#DejaVuSans-37" x="63.623047"/>
       <use xlink:href="#DejaVuSans-35" x="127.246094"/>
      </g>
     </g>
    </g>
    <g id="ytick_5">
     <g id="line2d_31">
      <path d="M 43.148125 133.325875 
L 698.613176 133.325875 
" clip-path="url(#pc972667942)" style="fill: none; stroke: #e2e8f0; stroke-opacity: 0.3; stroke-width: 0.8; stroke-linecap: square"/>
     </g>
     <g id="line2d_32">
      <g>
       <use xlink:href="#m9b19bf2da2" x="43.148125" y="133.325875" style="stroke: #000000; stroke-width: 0.8"/>
      </g>
     </g>
     <g id="text_16">
      <!-- 200 -->
      <g style="fill: #64748b" transform="translate(20.878125 136.36525) scale(0.08 -0.08)">
       <use xlink:href="#DejaVuSans-32"/>
       <use xlink:href="#DejaVuSans-30" x="63.623047"/>
       <use xlink:href="#DejaVuSans-30" x="127.246094"/>
      </g>
     </g>
    </g>
    <g id="ytick_6">
     <g id="line2d_33">
      <path d="M 43.148125 95.086328 
L 698.613176 95.086328 
" clip-path="url(#pc972667942)" style="fill: none; stroke: #e2e8f0; stroke-opacity: 0.3; stroke-width: 0.8; stroke-linecap: square"/>
     </g>
     <g id="line2d_34">
      <g>
       <use xlink:href="#m9b19bf2da2" x="43.148125" y="95.086328" style="stroke: #000000; stroke-width: 0.8"/>
      </g>
     </g>
     <g id="text_17">
      <!-- 225 -->
      <g style="fill: #64748b" transform="translate(20.878125 98.125703) scale(0.08 -0.08)">
       <use xlink:href="#DejaVuSans-32"/>
       <use xlink:href="#DejaVuSans-32" x="63.623047"/>
       <use xlink:href="#DejaVuSans-35" x="127.246094"/>
      </g>
     </g>
    </g>
    <g id="ytick_7">
     <g id="line2d_35">
      <path d="M 43.148125 56.846781 
L 698.613176 56.846781 
" clip-path="url(#pc972667942)" style="fill: none; stroke: #e2e8f0; stroke-opacity: 0.3; stroke-width: 0.8; stroke-linecap: square"/>
     </g>
     <g id="line2d_36">
      <g>
       <use xlink:href="#m9b19bf2da2" x="43.148125" y="56.846781" style="stroke: #000000; stroke-width: 0.8"/>
      </g>
     </g>
     <g id="text_18">
      <!-- 250 -->
      <g style="fill: #64748b" transform="translate(20.878125 59.886156) scale(0.08 -0.08)">
       <use xlink:href="#DejaVuSans-32"/>
       <use xlink:href="#DejaVuSans-35" x="63.623047"/>
       <use xlink:href="#DejaVuSans-30" x="127.246094"/>
      </g>
     </g>
    </g>
    <g id="ytick_8">
     <g id="line2d_37">
      <path d="M 43.148125 18.607235 
L 698.613176 18.607235 
" clip-path="url(#pc972667942)" style="fill: none; stroke: #e2e8f0; stroke-opacity: 0.3; stroke-width: 0.8; stroke-linecap: square"/>
     </g>
     <g id="line2d_38">
      <g>
       <use xlink:href="#m9b19bf2da2" x="43.148125" y="18.607235" style="stroke: #000000; stroke-width: 0.8"/>
      </g>
     </g>
     <g id="text_19">
      <!-- 275 -->
      <g style="fill: #64748b" transform="translate(20.878125 21.64661) scale(0.08 -0.08)">
       <use xlink:href="#DejaVuSans-32"/>
       <use xlink:href="#DejaVuSans-37" x="63.623047"/>
       <use xlink:href="#DejaVuSans-35" x="127.246094"/>
      </g>
     </g>
    </g>
    <g id="text_20">
     <!-- Portfolio Value ($K) -->
     <g style="fill: #64748b" transform="translate(14.798438 205.176834) rotate(-90) scale(0.1 -0.1)">
      <defs>
       <path id="DejaVuSans-50" d="M 1259 4147 
L 1259 2394 
L 2053 2394 
Q 2494 2394 2734 2622 
Q 2975 2850 2975 3272 
Q 2975 3691 2734 3919 
Q 2494 4147 2053 4147 
L 1259 4147 
z
M 628 4666 
L 2053 4666 
Q 2838 4666 3239 4311 
Q 3641 3956 3641 3272 
Q 3641 2581 3239 2228 
Q 2838 1875 2053 1875 
L 1259 1875 
L 1259 0 
L 628 0 
L 628 4666 
z
" transform="scale(0.015625)"/>
       <path id="DejaVuSans-6f" d="M 1959 3097 
Q 1497 3097 1228 2736 
Q 959 2375 959 1747 
Q 959 1119 1226 758 
Q 1494 397 1959 397 
Q 2419 397 2687 759 
Q 2956 1122 2956 1747 
Q 2956 2369 2687 2733 
Q 2419 3097 1959 3097 
z
M 1959 3584 
Q 2709 3584 3137 3096 
Q 3566 2609 3566 1747 
Q 3566 888 3137 398 
Q 2709 -91 1959 -91 
Q 1206 -91 779 398 
Q 353 888 353 1747 
Q 353 2609 779 3096 
Q 1206 3584 1959 3584 
z
" transform="scale(0.015625)"/>
       <path id="DejaVuSans-66" d="M 2375 4863 
L 2375 4384 
L 1825 4384 
Q 1516 4384 1395 4259 
Q 1275 4134 1275 3809 
L 1275 3500 
L 2222 3500 
L 2222 3053 
L 1275 3053 
L 1275 0 
L 697 0 
L 697 3053 
L 147 3053 
L 147 3500 
L 697 3500 
L 697 3744 
Q 697 4328 969 4595 
Q 1241 4863 1831 4863 
L 2375 4863 
z
" transform="scale(0.015625)"/>
       <path id="DejaVuSans-6c" d="M 603 4863 
L 1178 4863 
L 1178 0 
L 603 0 
L 603 4863 
z
" transform="scale(0.015625)"/>
       <path id="DejaVuSans-69" d="M 603 3500 
L 1178 3500 
L 1178 0 
L 603 0 
L 603 3500 
z
M 603 4863 
L 1178 4863 
L 1178 4134 
L 603 4134 
L 603 4863 
z
" transform="scale(0.015625)"/>
       <path id="DejaVuSans-56" d="M 1831 0 
L 50 4666 
L 709 4666 
L 2188 738 
L 3669 4666 
L 4325 4666 
L 2547 0 
L 1831 0 
z
" transform="scale(0.015625)"/>
       <path id="DejaVuSans-61" d="M 2194 1759 
Q 1497 1759 1228 1600 
Q 959 1441 959 1056 
Q 959 750 1161 570 
Q 1363 391 1709 391 
Q 2188 391 2477 730 
Q 2766 1069 2766 1631 
L 2766 1759 
L 2194 1759 
z
M 3341 1997 
L 3341 0 
L 2766 0 
L 2766 531 
Q 2569 213 2275 61 
Q 1981 -91 1556 -91 
Q 1019 -91 701 211 
Q 384 513 384 1019 
Q 384 1609 779 1909 
Q 1175 2209 1959 2209 
L 2766 2209 
L 2766 2266 
Q 2766 2663 2505 2880 
Q 2244 3097 1772 3097 
Q 1472 3097 1187 3025 
Q 903 2953 641 2809 
L 641 3341 
Q 956 3463 1253 3523 
Q 1550 3584 1831 3584 
Q 2591 3584 2966 3190 
Q 3341 2797 3341 1997 
z
" transform="scale(0.015625)"/>
       <path id="DejaVuSans-75" d="M 544 1381 
L 544 3500 
L 1119 3500 
L 1119 1403 
Q 1119 906 1312 657 
Q 1506 409 1894 409 
Q 2359 409 2629 706 
Q 2900 1003 2900 1516 
L 2900 3500 
L 3475 3500 
L 3475 0 
L 2900 0 
L 2900 538 
Q 2691 219 2414 64 
Q 2138 -91 1772 -91 
Q 1169 -91 856 284 
Q 544 659 544 1381 
z
M 1991 3584 
L 1991 3584 
z
" transform="scale(0.015625)"/>
       <path id="DejaVuSans-65" d="M 3597 1894 
L 3597 1613 
L 953 1613 
Q 991 1019 1311 708 
Q 1631 397 2203 397 
Q 2534 397 2845 478 
Q 3156 559 3463 722 
L 3463 178 
Q 3153 47 2828 -22 
Q 2503 -91 2169 -91 
Q 1331 -91 842 396 
Q 353 884 353 1716 
Q 353 2575 817 3079 
Q 1281 3584 2069 3584 
Q 2775 3584 3186 3129 
Q 3597 2675 3597 1894 
z
M 3022 2063 
Q 3016 2534 2758 2815 
Q 2500 3097 2075 3097 
Q 1594 3097 1305 2825 
Q 1016 2553 972 2059 
L 3022 2063 
z
" transform="scale(0.015625)"/>
       <path id="DejaVuSans-28" d="M 1984 4856 
Q 1566 4138 1362 3434 
Q 1159 2731 1159 2009 
Q 1159 1288 1364 580 
Q 1569 -128 1984 -844 
L 1484 -844 
Q 1016 -109 783 600 
Q 550 1309 550 2009 
Q 550 2706 781 3412 
Q 1013 4119 1484 4856 
L 1984 4856 
z
" transform="scale(0.015625)"/>
       <path id="DejaVuSans-24" d="M 2163 -941 
L 1850 -941 
L 1847 0 
Q 1519 6 1191 76 
Q 863 147 531 288 
L 531 850 
Q 850 650 1176 548 
Q 1503 447 1850 444 
L 1850 1869 
Q 1159 1981 845 2250 
Q 531 2519 531 2988 
Q 531 3497 872 3790 
Q 1213 4084 1850 4128 
L 1850 4863 
L 2163 4863 
L 2163 4138 
Q 2453 4125 2725 4076 
Q 2997 4028 3256 3944 
L 3256 3397 
Q 2997 3528 2723 3600 
Q 2450 3672 2163 3684 
L 2163 2350 
Q 2872 2241 3206 1959 
Q 3541 1678 3541 1191 
Q 3541 663 3186 358 
Q 2831 53 2163 6 
L 2163 -941 
z
M 1850 2406 
L 1850 3688 
Q 1488 3647 1297 3481 
Q 1106 3316 1106 3041 
Q 1106 2772 1282 2622 
Q 1459 2472 1850 2406 
z
M 2163 1806 
L 2163 453 
Q 2559 506 2761 678 
Q 2963 850 2963 1131 
Q 2963 1406 2770 1568 
Q 2578 1731 2163 1806 
z
" transform="scale(0.015625)"/>
       <path id="DejaVuSans-4b" d="M 628 4666 
L 1259 4666 
L 1259 2694 
L 3353 4666 
L 4166 4666 
L 1850 2491 
L 4331 0 
L 3500 0 
L 1259 2247 
L 1259 0 
L 628 0 
L 628 4666 
z
" transform="scale(0.015625)"/>
       <path id="DejaVuSans-29" d="M 513 4856 
L 1013 4856 
Q 1481 4119 1714 3412 
Q 1947 2706 1947 2009 
Q 1947 1309 1714 600 
Q 1481 -109 1013 -844 
L 513 -844 
Q 928 -128 1133 580 
Q 1338 1288 1338 2009 
Q 1338 2731 1133 3434 
Q 928 4138 513 4856 
z
" transform="scale(0.015625)"/>
      </defs>
      <use xlink:href="#DejaVuSans-50"/>
      <use xlink:href="#DejaVuSans-6f" x="56.677734"/>
      <use xlink:href="#DejaVuSans-72" x="117.859375"/>
      <use xlink:href="#DejaVuSans-74" x="158.972656"/>
      <use xlink:href="#DejaVuSans-66" x="198.181641"/>
      <use xlink:href="#DejaVuSans-6f" x="233.386719"/>
      <use xlink:href="#DejaVuSans-6c" x="294.568359"/>
      <use xlink:href="#DejaVuSans-69" x="322.351562"/>
      <use xlink:href="#DejaVuSans-6f" x="350.134766"/>
      <use xlink:href="#DejaVuSans-20" x="411.316406"/>
      <use xlink:href="#DejaVuSans-56" x="443.103516"/>
      <use xlink:href="#DejaVuSans-61" x="503.761719"/>
      <use xlink:href="#DejaVuSans-6c" x="565.041016"/>
      <use xlink:href="#DejaVuSans-75" x="592.824219"/>
      <use xlink:href="#DejaVuSans-65" x="656.203125"/>
      <use xlink:href="#DejaVuSans-20" x="717.726562"/>
      <use xlink:href="#DejaVuSans-28" x="749.513672"/>
      <use xlink:href="#DejaVuSans-24" x="788.527344"/>
      <use xlink:href="#DejaVuSans-4b" x="852.150391"/>
      <use xlink:href="#DejaVuSans-29" x="917.726562"/>
     </g>
    </g>
   </g>
   <g id="line2d_39">
    <path d="M 72.941991 286.284062 
L 77.510601 279.486734 
L 82.079212 280.829114 
L 86.647822 277.961301 
L 91.216432 278.254184 
L 95.785043 271.794485 
L 100.353653 269.365996 
L 104.922263 269.231758 
L 109.490874 268.731416 
L 114.059484 267.47446 
L 118.628094 268.043954 
L 123.196705 262.812737 
L 127.765315 266.37208 
L 132.333925 261.238491 
L 136.902536 257.422875 
L 141.471146 255.283202 
L 146.039756 257.58152 
L 150.608367 259.184241 
L 155.176977 262.418159 
L 159.745587 253.932685 
L 164.314198 248.489941 
L 168.882808 249.043165 
L 173.451418 252.614711 
L 178.020029 254.164551 
L 182.588639 244.918395 
L 187.157249 250.202494 
L 191.72586 256.226936 
L 196.29447 260.656792 
L 200.86308 261.629002 
L 205.431691 269.614133 
L 210.000301 253.814718 
L 214.568911 260.290689 
L 219.137522 264.932072 
L 223.706132 277.273839 
L 228.274742 277.782317 
L 232.843353 271.733468 
L 237.411963 290.416967 
L 241.980573 284.160659 
L 246.549183 283.871844 
L 251.117794 272.148385 
L 255.686404 264.789698 
L 260.255014 275.459591 
L 264.823625 272.067029 
L 269.392235 291.047479 
L 273.960845 292.792574 
L 278.529456 285.124733 
L 283.098066 284.685408 
L 287.666676 278.730119 
L 292.235287 276.696209 
L 296.803897 284.656933 
L 301.372507 283.676589 
L 305.941118 277.139601 
L 310.509728 276.289427 
L 315.078338 271.310414 
L 319.646949 277.452823 
L 324.215559 282.484717 
L 328.784169 277.957233 
L 333.35278 272.620253 
L 337.92139 271.391771 
L 342.49 271.347025 
L 347.058611 268.885993 
L 351.627221 265.505634 
L 356.195831 260.477808 
L 360.764442 258.716442 
L 369.901662 253.021493 
L 374.470273 256.959144 
L 379.038883 259.135428 
L 383.607493 256.820838 
L 388.176104 263.418843 
L 392.744714 263.394436 
L 397.313324 268.206667 
L 401.881935 262.011377 
L 406.450545 254.457434 
L 411.019155 253.468954 
L 415.587766 247.253324 
L 420.156376 245.894672 
L 424.724986 245.33738 
L 429.293597 239.40243 
L 433.862207 235.452577 
L 442.999428 231.262721 
L 447.568038 227.809142 
L 452.136648 228.236263 
L 456.705259 235.965122 
L 461.273869 229.110844 
L 465.842479 223.623354 
L 470.41109 224.542682 
L 474.9797 216.691788 
L 479.54831 217.407725 
L 484.116921 210.821923 
L 488.685531 217.643658 
L 493.254141 222.317584 
L 497.822752 211.122942 
L 502.391362 216.972468 
L 506.959972 207.510717 
L 511.528583 208.2714 
L 516.097193 201.83204 
L 520.665803 207.453768 
L 525.234414 199.993385 
L 529.803024 193.696399 
L 534.371634 192.410968 
L 538.940245 199.96491 
L 543.508855 202.743232 
L 548.077465 195.429291 
L 552.646076 193.200125 
L 557.214686 196.30794 
L 561.783296 211.208366 
L 566.351907 205.716809 
L 570.920517 234.069518 
L 575.489127 230.205088 
L 580.057738 210.016495 
L 584.626348 197.267945 
L 589.194958 198.138459 
L 593.763569 194.082842 
L 598.332179 187.911958 
L 602.900789 185.080755 
L 607.4694 180.146489 
L 612.03801 180.561407 
L 621.175231 175.30985 
L 625.743841 167.983706 
L 630.312451 166.043355 
L 634.881062 166.169458 
L 639.449672 161.271802 
L 644.018282 168.459641 
L 648.586893 162.520623 
L 653.155503 162.333503 
L 662.292724 156.463638 
L 666.861334 157.452118 
L 668.81931 157.761273 
L 668.81931 157.761273 
" clip-path="url(#pc972667942)" style="fill: none; stroke-dasharray: 5.55,2.4; stroke-dashoffset: 0; stroke: #94a3b8; stroke-width: 1.5"/>
   </g>
   <g id="patch_3">
    <path d="M 43.148125 307.480231 
L 43.148125 7.2 
" style="fill: none; stroke: #e2e8f0; stroke-width: 0.8; stroke-linejoin: miter; stroke-linecap: square"/>
   </g>
   <g id="patch_4">
    <path d="M 43.148125 307.480231 
L 698.613176 307.480231 
" style="fill: none; stroke: #e2e8f0; stroke-width: 0.8; stroke-linejoin: miter; stroke-linecap: square"/>
   </g>
   <g id="line2d_40">
    <path d="M 72.941991 286.284062 
L 77.510601 251.97554 
L 82.079212 281.713494 
L 86.647822 266.842779 
L 91.216432 289.18575 
L 95.785043 282.853366 
L 100.353653 279.725588 
L 104.922263 278.943957 
L 109.490874 282.085803 
L 114.059484 282.903017 
L 118.628094 293.831129 
L 123.196705 290.632085 
L 127.765315 291.791244 
L 132.333925 282.192183 
L 136.902536 276.035821 
L 141.471146 275.562522 
L 146.039756 276.364553 
L 150.608367 274.328582 
L 155.176977 278.121596 
L 159.745587 269.694986 
L 164.314198 264.489885 
L 168.882808 270.693594 
L 173.451418 268.148509 
L 178.020029 268.6789 
L 182.588639 263.493774 
L 187.157249 265.62033 
L 191.72586 274.475048 
L 196.29447 266.63213 
L 200.86308 265.855384 
L 205.431691 265.855384 
L 210.000301 257.446121 
L 214.568911 253.592043 
L 287.666676 253.592043 
L 292.235287 253.796258 
L 305.941118 253.796258 
L 310.509728 259.28546 
L 315.078338 256.280181 
L 319.646949 267.843384 
L 324.215559 270.174409 
L 328.784169 273.133096 
L 333.35278 269.661414 
L 337.92139 273.663522 
L 342.49 266.046901 
L 347.058611 257.092701 
L 351.627221 246.145513 
L 356.195831 241.182927 
L 360.764442 238.944857 
L 365.333052 220.998211 
L 369.901662 219.75422 
L 374.470273 242.954104 
L 379.038883 249.097923 
L 383.607493 246.340831 
L 388.176104 251.105496 
L 392.744714 251.293632 
L 397.313324 253.041555 
L 401.881935 256.281447 
L 406.450545 255.019017 
L 411.019155 255.719065 
L 415.587766 249.644448 
L 420.156376 242.686209 
L 424.724986 242.175163 
L 429.293597 235.100455 
L 433.862207 233.242764 
L 438.430817 244.428536 
L 442.999428 234.454074 
L 447.568038 211.394926 
L 452.136648 206.31393 
L 456.705259 220.243044 
L 461.273869 212.512372 
L 465.842479 208.544599 
L 470.41109 215.35018 
L 474.9797 219.111567 
L 479.54831 224.394703 
L 484.116921 219.195392 
L 488.685531 233.872518 
L 493.254141 243.853487 
L 497.822752 205.459595 
L 502.391362 208.615661 
L 506.959972 204.671946 
L 511.528583 203.194153 
L 516.097193 205.082538 
L 520.665803 213.746447 
L 525.234414 210.228713 
L 529.803024 198.022291 
L 534.371634 197.901681 
L 538.940245 203.959329 
L 543.508855 202.171179 
L 548.077465 198.283214 
L 552.646076 198.30731 
L 557.214686 204.451151 
L 561.783296 194.519487 
L 566.351907 194.519487 
L 570.920517 200.343889 
L 580.057738 200.343889 
L 584.626348 194.132532 
L 589.194958 206.437039 
L 593.763569 200.058177 
L 598.332179 179.631857 
L 602.900789 165.22348 
L 607.4694 154.043514 
L 612.03801 145.744231 
L 616.60662 144.041943 
L 621.175231 157.384996 
L 625.743841 121.983726 
L 630.312451 100.695679 
L 634.881062 100.594115 
L 639.449672 86.777271 
L 644.018282 93.615091 
L 648.586893 86.564297 
L 653.155503 69.671024 
L 657.724113 68.266653 
L 662.292724 38.328922 
L 666.861334 20.849101 
L 668.81931 38.421614 
L 668.81931 38.421614 
" clip-path="url(#pc972667942)" style="fill: none; stroke: #172554; stroke-width: 2.5; stroke-linecap: square"/>
   </g>
   <g id="legend_1">
    <g id="patch_5">
     <path d="M 49.448125 40.820625 
L 205.894844 40.820625 
Q 207.694844 40.820625 207.694844 39.020625 
L 207.694844 13.5 
Q 207.694844 11.7 205.894844 11.7 
L 49.448125 11.7 
Q 47.648125 11.7 47.648125 13.5 
L 47.648125 39.020625 
Q 47.648125 40.820625 49.448125 40.820625 
z
" style="fill: #ffffff; opacity: 0.9; stroke: #cccccc; stroke-linejoin: miter"/>
    </g>
    <g id="line2d_41">
     <path d="M 51.248125 18.988594 
L 60.248125 18.988594 
L 69.248125 18.988594 
" style="fill: none; stroke: #172554; stroke-width: 2.5; stroke-linecap: square"/>
    </g>
    <g id="text_21">
     <!-- RigaCap Ensemble (+162%) -->
     <g transform="translate(76.448125 22.138594) scale(0.09 -0.09)">
      <defs>
       <path id="DejaVuSans-52" d="M 2841 2188 
Q 3044 2119 3236 1894 
Q 3428 1669 3622 1275 
L 4263 0 
L 3584 0 
L 2988 1197 
Q 2756 1666 2539 1819 
Q 2322 1972 1947 1972 
L 1259 1972 
L 1259 0 
L 628 0 
L 628 4666 
L 2053 4666 
Q 2853 4666 3247 4331 
Q 3641 3997 3641 3322 
Q 3641 2881 3436 2590 
Q 3231 2300 2841 2188 
z
M 1259 4147 
L 1259 2491 
L 2053 2491 
Q 2509 2491 2742 2702 
Q 2975 2913 2975 3322 
Q 2975 3731 2742 3939 
Q 2509 4147 2053 4147 
L 1259 4147 
z
" transform="scale(0.015625)"/>
       <path id="DejaVuSans-67" d="M 2906 1791 
Q 2906 2416 2648 2759 
Q 2391 3103 1925 3103 
Q 1463 3103 1205 2759 
Q 947 2416 947 1791 
Q 947 1169 1205 825 
Q 1463 481 1925 481 
Q 2391 481 2648 825 
Q 2906 1169 2906 1791 
z
M 3481 434 
Q 3481 -459 3084 -895 
Q 2688 -1331 1869 -1331 
Q 1566 -1331 1297 -1286 
Q 1028 -1241 775 -1147 
L 775 -588 
Q 1028 -725 1275 -790 
Q 1522 -856 1778 -856 
Q 2344 -856 2625 -561 
Q 2906 -266 2906 331 
L 2906 616 
Q 2728 306 2450 153 
Q 2172 0 1784 0 
Q 1141 0 747 490 
Q 353 981 353 1791 
Q 353 2603 747 3093 
Q 1141 3584 1784 3584 
Q 2172 3584 2450 3431 
Q 2728 3278 2906 2969 
L 2906 3500 
L 3481 3500 
L 3481 434 
z
" transform="scale(0.015625)"/>
       <path id="DejaVuSans-43" d="M 4122 4306 
L 4122 3641 
Q 3803 3938 3442 4084 
Q 3081 4231 2675 4231 
Q 1875 4231 1450 3742 
Q 1025 3253 1025 2328 
Q 1025 1406 1450 917 
Q 1875 428 2675 428 
Q 3081 428 3442 575 
Q 3803 722 4122 1019 
L 4122 359 
Q 3791 134 3420 21 
Q 3050 -91 2638 -91 
Q 1578 -91 968 557 
Q 359 1206 359 2328 
Q 359 3453 968 4101 
Q 1578 4750 2638 4750 
Q 3056 4750 3426 4639 
Q 3797 4528 4122 4306 
z
" transform="scale(0.015625)"/>
       <path id="DejaVuSans-45" d="M 628 4666 
L 3578 4666 
L 3578 4134 
L 1259 4134 
L 1259 2753 
L 3481 2753 
L 3481 2222 
L 1259 2222 
L 1259 531 
L 3634 531 
L 3634 0 
L 628 0 
L 628 4666 
z
" transform="scale(0.015625)"/>
       <path id="DejaVuSans-6e" d="M 3513 2113 
L 3513 0 
L 2938 0 
L 2938 2094 
Q 2938 2591 2744 2837 
Q 2550 3084 2163 3084 
Q 1697 3084 1428 2787 
Q 1159 2491 1159 1978 
L 1159 0 
L 581 0 
L 581 3500 
L 1159 3500 
L 1159 2956 
Q 1366 3272 1645 3428 
Q 1925 3584 2291 3584 
Q 2894 3584 3203 3211 
Q 3513 2838 3513 2113 
z
" transform="scale(0.015625)"/>
       <path id="DejaVuSans-73" d="M 2834 3397 
L 2834 2853 
Q 2591 2978 2328 3040 
Q 2066 3103 1784 3103 
Q 1356 3103 1142 2972 
Q 928 2841 928 2578 
Q 928 2378 1081 2264 
Q 1234 2150 1697 2047 
L 1894 2003 
Q 2506 1872 2764 1633 
Q 3022 1394 3022 966 
Q 3022 478 2636 193 
Q 2250 -91 1575 -91 
Q 1294 -91 989 -36 
Q 684 19 347 128 
L 347 722 
Q 666 556 975 473 
Q 1284 391 1588 391 
Q 1994 391 2212 530 
Q 2431 669 2431 922 
Q 2431 1156 2273 1281 
Q 2116 1406 1581 1522 
L 1381 1569 
Q 847 1681 609 1914 
Q 372 2147 372 2553 
Q 372 3047 722 3315 
Q 1072 3584 1716 3584 
Q 2034 3584 2315 3537 
Q 2597 3491 2834 3397 
z
" transform="scale(0.015625)"/>
       <path id="DejaVuSans-6d" d="M 3328 2828 
Q 3544 3216 3844 3400 
Q 4144 3584 4550 3584 
Q 5097 3584 5394 3201 
Q 5691 2819 5691 2113 
L 5691 0 
L 5113 0 
L 5113 2094 
Q 5113 2597 4934 2840 
Q 4756 3084 4391 3084 
Q 3944 3084 3684 2787 
Q 3425 2491 3425 1978 
L 3425 0 
L 2847 0 
L 2847 2094 
Q 2847 2600 2669 2842 
Q 2491 3084 2119 3084 
Q 1678 3084 1418 2786 
Q 1159 2488 1159 1978 
L 1159 0 
L 581 0 
L 581 3500 
L 1159 3500 
L 1159 2956 
Q 1356 3278 1631 3431 
Q 1906 3584 2284 3584 
Q 2666 3584 2933 3390 
Q 3200 3197 3328 2828 
z
" transform="scale(0.015625)"/>
       <path id="DejaVuSans-62" d="M 3116 1747 
Q 3116 2381 2855 2742 
Q 2594 3103 2138 3103 
Q 1681 3103 1420 2742 
Q 1159 2381 1159 1747 
Q 1159 1113 1420 752 
Q 1681 391 2138 391 
Q 2594 391 2855 752 
Q 3116 1113 3116 1747 
z
M 1159 2969 
Q 1341 3281 1617 3432 
Q 1894 3584 2278 3584 
Q 2916 3584 3314 3078 
Q 3713 2572 3713 1747 
Q 3713 922 3314 415 
Q 2916 -91 2278 -91 
Q 1894 -91 1617 61 
Q 1341 213 1159 525 
L 1159 0 
L 581 0 
L 581 4863 
L 1159 4863 
L 1159 2969 
z
" transform="scale(0.015625)"/>
       <path id="DejaVuSans-2b" d="M 2944 4013 
L 2944 2272 
L 4684 2272 
L 4684 1741 
L 2944 1741 
L 2944 0 
L 2419 0 
L 2419 1741 
L 678 1741 
L 678 2272 
L 2419 2272 
L 2419 4013 
L 2944 4013 
z
" transform="scale(0.015625)"/>
       <path id="DejaVuSans-25" d="M 4653 2053 
Q 4381 2053 4226 1822 
Q 4072 1591 4072 1178 
Q 4072 772 4226 539 
Q 4381 306 4653 306 
Q 4919 306 5073 539 
Q 5228 772 5228 1178 
Q 5228 1588 5073 1820 
Q 4919 2053 4653 2053 
z
M 4653 2450 
Q 5147 2450 5437 2106 
Q 5728 1763 5728 1178 
Q 5728 594 5436 251 
Q 5144 -91 4653 -91 
Q 4153 -91 3862 251 
Q 3572 594 3572 1178 
Q 3572 1766 3864 2108 
Q 4156 2450 4653 2450 
z
M 1428 4353 
Q 1159 4353 1004 4120 
Q 850 3888 850 3481 
Q 850 3069 1003 2837 
Q 1156 2606 1428 2606 
Q 1700 2606 1854 2837 
Q 2009 3069 2009 3481 
Q 2009 3884 1853 4118 
Q 1697 4353 1428 4353 
z
M 4250 4750 
L 4750 4750 
L 1831 -91 
L 1331 -91 
L 4250 4750 
z
M 1428 4750 
Q 1922 4750 2215 4408 
Q 2509 4066 2509 3481 
Q 2509 2891 2217 2550 
Q 1925 2209 1428 2209 
Q 931 2209 642 2551 
Q 353 2894 353 3481 
Q 353 4063 643 4406 
Q 934 4750 1428 4750 
z
" transform="scale(0.015625)"/>
      </defs>
      <use xlink:href="#DejaVuSans-52"/>
      <use xlink:href="#DejaVuSans-69" x="69.482422"/>
      <use xlink:href="#DejaVuSans-67" x="97.265625"/>
      <use xlink:href="#DejaVuSans-61" x="160.742188"/>
      <use xlink:href="#DejaVuSans-43" x="222.021484"/>
      <use xlink:href="#DejaVuSans-61" x="291.845703"/>
      <use xlink:href="#DejaVuSans-70" x="353.125"/>
      <use xlink:href="#DejaVuSans-20" x="416.601562"/>
      <use xlink:href="#DejaVuSans-45" x="448.388672"/>
      <use xlink:href="#DejaVuSans-6e" x="511.572266"/>
      <use xlink:href="#DejaVuSans-73" x="574.951172"/>
      <use xlink:href="#DejaVuSans-65" x="627.050781"/>
      <use xlink:href="#DejaVuSans-6d" x="688.574219"/>
      <use xlink:href="#DejaVuSans-62" x="785.986328"/>
      <use xlink:href="#DejaVuSans-6c" x="849.462891"/>
      <use xlink:href="#DejaVuSans-65" x="877.246094"/>
      <use xlink:href="#DejaVuSans-20" x="938.769531"/>
      <use xlink:href="#DejaVuSans-28" x="970.556641"/>
      <use xlink:href="#DejaVuSans-2b" x="1009.570312"/>
      <use xlink:href="#DejaVuSans-31" x="1093.359375"/>
      <use xlink:href="#DejaVuSans-36" x="1156.982422"/>
      <use xlink:href="#DejaVuSans-32" x="1220.605469"/>
      <use xlink:href="#DejaVuSans-25" x="1284.228516"/>
      <use xlink:href="#DejaVuSans-29" x="1379.248047"/>
     </g>
    </g>
    <g id="line2d_42">
     <path d="M 51.248125 32.198906 
L 60.248125 32.198906 
L 69.248125 32.198906 
" style="fill: none; stroke-dasharray: 5.55,2.4; stroke-dashoffset: 0; stroke: #94a3b8; stroke-width: 1.5"/>
    </g>
    <g id="text_22">
     <!-- S&amp;P 500 (+84%) -->
     <g transform="translate(76.448125 35.348906) scale(0.09 -0.09)">
      <defs>
       <path id="DejaVuSans-53" d="M 3425 4513 
L 3425 3897 
Q 3066 4069 2747 4153 
Q 2428 4238 2131 4238 
Q 1616 4238 1336 4038 
Q 1056 3838 1056 3469 
Q 1056 3159 1242 3001 
Q 1428 2844 1947 2747 
L 2328 2669 
Q 3034 2534 3370 2195 
Q 3706 1856 3706 1288 
Q 3706 609 3251 259 
Q 2797 -91 1919 -91 
Q 1588 -91 1214 -16 
Q 841 59 441 206 
L 441 856 
Q 825 641 1194 531 
Q 1563 422 1919 422 
Q 2459 422 2753 634 
Q 3047 847 3047 1241 
Q 3047 1584 2836 1778 
Q 2625 1972 2144 2069 
L 1759 2144 
Q 1053 2284 737 2584 
Q 422 2884 422 3419 
Q 422 4038 858 4394 
Q 1294 4750 2059 4750 
Q 2388 4750 2728 4690 
Q 3069 4631 3425 4513 
z
" transform="scale(0.015625)"/>
       <path id="DejaVuSans-26" d="M 1556 2509 
Q 1272 2256 1139 2004 
Q 1006 1753 1006 1478 
Q 1006 1022 1337 719 
Q 1669 416 2169 416 
Q 2466 416 2725 514 
Q 2984 613 3213 813 
L 1556 2509 
z
M 1997 2859 
L 3584 1234 
Q 3769 1513 3872 1830 
Q 3975 2147 3994 2503 
L 4575 2503 
Q 4538 2091 4375 1687 
Q 4213 1284 3922 891 
L 4794 0 
L 4006 0 
L 3559 459 
Q 3234 181 2878 45 
Q 2522 -91 2113 -91 
Q 1359 -91 881 339 
Q 403 769 403 1441 
Q 403 1841 612 2192 
Q 822 2544 1241 2853 
Q 1091 3050 1012 3245 
Q 934 3441 934 3628 
Q 934 4134 1281 4442 
Q 1628 4750 2203 4750 
Q 2463 4750 2720 4694 
Q 2978 4638 3244 4525 
L 3244 3956 
Q 2972 4103 2725 4179 
Q 2478 4256 2266 4256 
Q 1938 4256 1733 4082 
Q 1528 3909 1528 3634 
Q 1528 3475 1620 3314 
Q 1713 3153 1997 2859 
z
" transform="scale(0.015625)"/>
       <path id="DejaVuSans-38" d="M 2034 2216 
Q 1584 2216 1326 1975 
Q 1069 1734 1069 1313 
Q 1069 891 1326 650 
Q 1584 409 2034 409 
Q 2484 409 2743 651 
Q 3003 894 3003 1313 
Q 3003 1734 2745 1975 
Q 2488 2216 2034 2216 
z
M 1403 2484 
Q 997 2584 770 2862 
Q 544 3141 544 3541 
Q 544 4100 942 4425 
Q 1341 4750 2034 4750 
Q 2731 4750 3128 4425 
Q 3525 4100 3525 3541 
Q 3525 3141 3298 2862 
Q 3072 2584 2669 2484 
Q 3125 2378 3379 2068 
Q 3634 1759 3634 1313 
Q 3634 634 3220 271 
Q 2806 -91 2034 -91 
Q 1263 -91 848 271 
Q 434 634 434 1313 
Q 434 1759 690 2068 
Q 947 2378 1403 2484 
z
M 1172 3481 
Q 1172 3119 1398 2916 
Q 1625 2713 2034 2713 
Q 2441 2713 2670 2916 
Q 2900 3119 2900 3481 
Q 2900 3844 2670 4047 
Q 2441 4250 2034 4250 
Q 1625 4250 1398 4047 
Q 1172 3844 1172 3481 
z
" transform="scale(0.015625)"/>
      </defs>
      <use xlink:href="#DejaVuSans-53"/>
      <use xlink:href="#DejaVuSans-26" x="63.476562"/>
      <use xlink:href="#DejaVuSans-50" x="141.455078"/>
      <use xlink:href="#DejaVuSans-20" x="201.757812"/>
      <use xlink:href="#DejaVuSans-35" x="233.544922"/>
      <use xlink:href="#DejaVuSans-30" x="297.167969"/>
      <use xlink:href="#DejaVuSans-30" x="360.791016"/>
      <use xlink:href="#DejaVuSans-20" x="424.414062"/>
      <use xlink:href="#DejaVuSans-28" x="456.201172"/>
      <use xlink:href="#DejaVuSans-2b" x="495.214844"/>
      <use xlink:href="#DejaVuSans-38" x="579.003906"/>
      <use xlink:href="#DejaVuSans-34" x="642.626953"/>
      <use xlink:href="#DejaVuSans-25" x="706.25"/>
      <use xlink:href="#DejaVuSans-29" x="801.269531"/>
     </g>
    </g>
   </g>
  </g>
 </g>
 <defs>
  <clipPath id="pc972667942">
   <rect x="43.148125" y="7.2" width="655.465051" height="300.280231"/>
  </clipPath>
 </defs>
</svg>
